<?xml version="1.0" encoding="UTF-8" standalone="no"?>
<!-- Created with Inkscape (http://www.inkscape.org/) -->

<svg
   width="160.00005mm"
   height="150.00015mm"
   viewBox="0 0 160.00005 150.00015"
   version="1.1"
   id="svg1"
   xmlns="http://www.w3.org/2000/svg"
   xmlns:svg="http://www.w3.org/2000/svg">
  <defs
     id="defs1" />
  <g
     id="layer1"
     transform="translate(-7.9369833,-52.501704)">
    <g
       id="g4"
       style="fill:#65ff30;fill-opacity:1">
      <path
         d="m 77.936845,52.501705 v 9.999906 h -9.999907 v 9.999907 h -9.999906 v 10.000423 h -9.999906 v 9.999906 h -9.999907 v 9.999903 h 9.999907 9.999906 9.999906 v -9.999903 h 9.999907 v 9.999903 9.99991 9.99991 9.9999 10.00043 9.9999 9.99991 h 10.000423 9.999906 v -9.99991 -9.9999 -10.00043 -9.9999 -9.99991 -9.99991 -9.999903 h 9.999906 v 9.999903 h 9.99991 9.9999 10.00043 v -9.999903 h -10.00043 v -9.999906 h -9.9999 V 72.501518 h -9.99991 v -9.999907 h -9.999906 v -9.999906 h -9.999906 z"
         style="fill:#65ff30;fill-opacity:1;fill-rule:evenodd;stroke-width:0.351314;stroke-linecap:round;stroke-miterlimit:15.2"
         id="path4" />
      <path
         d="m 7.9369832,132.50147 v 10.00043 9.9999 9.99991 9.99991 9.9999 10.00042 9.99991 h 9.9999068 10.000423 9.999906 9.999907 9.999906 9.999906 9.999907 10.000423 9.999906 9.999906 9.99991 9.9999 10.00043 9.9999 9.99991 9.99991 v -9.99991 -10.00042 -9.9999 -9.99991 -9.99991 -9.9999 -10.00043 h -9.99991 -9.99991 v 10.00043 9.9999 9.99991 9.99991 9.9999 h -9.9999 -10.00043 -9.9999 -9.99991 -9.999906 -9.999906 -10.000423 -9.999907 -9.999906 -9.999906 -9.999907 -9.999906 v -9.9999 -9.99991 -9.99991 -9.9999 -10.00043 H 17.93689 Z"
         style="fill:#65ff30;fill-opacity:1;fill-rule:evenodd;stroke-width:0.351314;stroke-linecap:round;stroke-miterlimit:15.2"
         id="path3" />
    </g>
  </g>
</svg>
